<svg preserveAspectRatio="xMidYMin meet" viewBox="0 0 1200 180" xmlns="http://www.w3.org/2000/svg" xmlns:xlink="http://www.w3.org/1999/xlink"><mask id="a"><path d="m0 0h160v90l-10 20-10-20-10 20-10-20-10 20-10-20-10 20-10-20-10 20-10-20-10 20-10-20-10 20-10-20-10 20-10-20z" fill="#fff"/><circle cx="80" cy="50" r="10"/><circle cx="80" cy="32" r="5"/><circle cx="80" cy="68" r="5"/><circle cx="62" cy="50" r="5"/><circle cx="98" cy="50" r="5"/><circle cx="68" cy="38" r="3"/><circle cx="92" cy="38" r="3"/><circle cx="68" cy="62" r="3"/><circle cx="92" cy="62" r="3"/><circle cx="20" cy="20" r="2.5"/><circle cx="35" cy="14" r="2.5"/><circle cx="50" cy="14" r="2.5"/><circle cx="110" cy="14" r="2.5"/><circle cx="125" cy="14" r="2.5"/><circle cx="140" cy="20" r="2.5"/><circle cx="20" cy="40" r="2.5"/><circle cx="20" cy="60" r="2.5"/><circle cx="140" cy="40" r="2.5"/><circle cx="140" cy="60" r="2.5"/><circle cx="40" cy="80" r="2"/><circle cx="60" cy="80" r="2"/><circle cx="80" cy="82" r="2"/><circle cx="100" cy="80" r="2"/><circle cx="120" cy="80" r="2"/></mask><mask id="b"><path d="m0 0h160v90l-10 20-10-20-10 20-10-20-10 20-10-20-10 20-10-20-10 20-10-20-10 20-10-20-10 20-10-20-10 20-10-20z" fill="#fff"/><path d="m80 25 30 30-30 30-30-30z"/><path d="m80 42 15 13-15 13-15-13z" fill="#fff"/><circle cx="80" cy="55" r="3"/><path d="m25 22 8 8-8 8-8-8z"/><path d="m135 22 8 8-8 8-8-8z"/><path d="m25 72 8 8-8 8-8-8z"/><path d="m135 72 8 8-8 8-8-8z"/><circle cx="55" cy="14" r="3"/><circle cx="80" cy="12" r="3"/><circle cx="105" cy="14" r="3"/><circle cx="55" cy="80" r="3"/><circle cx="80" cy="82" r="3"/><circle cx="105" cy="80" r="3"/></mask><mask id="c"><path d="m0 0h160v90l-10 20-10-20-10 20-10-20-10 20-10-20-10 20-10-20-10 20-10-20-10 20-10-20-10 20-10-20-10 20-10-20z" fill="#fff"/><circle cx="80" cy="50" r="14"/><circle cx="80" cy="50" fill="#fff" r="7"/><circle cx="80" cy="50" r="2"/><path d="m80 22 4 10h-8z"/><path d="m80 78 4-10h-8z"/><path d="m52 50 10-4v8z"/><path d="m108 50-10-4v8z"/><path d="m60 30 8 5-3 6z"/><path d="m100 30-8 5 3 6z"/><path d="m60 70 8-5-3-6z"/><path d="m100 70-8-5 3-6z"/><path d="m17 22h2v58h-2z"/><path d="m141 22h2v58h-2z"/><circle cx="30" cy="14" r="3"/><circle cx="45" cy="14" r="2"/><circle cx="115" cy="14" r="2"/><circle cx="130" cy="14" r="3"/><circle cx="30" cy="82" r="3"/><circle cx="130" cy="82" r="3"/></mask><mask id="d"><path d="m0 0h160v90l-10 20-10-20-10 20-10-20-10 20-10-20-10 20-10-20-10 20-10-20-10 20-10-20-10 20-10-20-10 20-10-20z" fill="#fff"/><circle cx="70" cy="42" r="12"/><circle cx="90" cy="42" r="12"/><path d="m58 42h44l-22 30z"/><circle cx="28" cy="28" r="4"/><circle cx="28" cy="20" r="2"/><circle cx="28" cy="36" r="2"/><circle cx="20" cy="28" r="2"/><circle cx="36" cy="28" r="2"/><circle cx="132" cy="28" r="4"/><circle cx="132" cy="20" r="2"/><circle cx="132" cy="36" r="2"/><circle cx="124" cy="28" r="2"/><circle cx="140" cy="28" r="2"/><circle cx="28" cy="68" r="4"/><circle cx="20" cy="68" r="2"/><circle cx="36" cy="68" r="2"/><circle cx="132" cy="68" r="4"/><circle cx="124" cy="68" r="2"/><circle cx="140" cy="68" r="2"/><circle cx="60" cy="14" r="2"/><circle cx="80" cy="14" r="2"/><circle cx="100" cy="14" r="2"/></mask><mask id="e"><path d="m0 0h160v90l-10 20-10-20-10 20-10-20-10 20-10-20-10 20-10-20-10 20-10-20-10 20-10-20-10 20-10-20-10 20-10-20z" fill="#fff"/><path d="m80 22 20 28h-20z"/><path d="m80 78-20-28h20z"/><path d="m25 30 5 5-5 5-5-5z"/><path d="m40 25 5 5-5 5-5-5z"/><path d="m120 25 5 5-5 5-5-5z"/><path d="m135 30 5 5-5 5-5-5z"/><path d="m25 65 5 5-5 5-5-5z"/><path d="m40 70 5 5-5 5-5-5z"/><path d="m120 70 5 5-5 5-5-5z"/><path d="m135 65 5 5-5 5-5-5z"/><circle cx="55" cy="14" r="2"/><circle cx="80" cy="14" r="3"/><circle cx="105" cy="14" r="2"/></mask><mask id="f"><path d="m0 0h160v90l-10 20-10-20-10 20-10-20-10 20-10-20-10 20-10-20-10 20-10-20-10 20-10-20-10 20-10-20-10 20-10-20z" fill="#fff"/><path d="m73 22h14v56h-14z"/><path d="m52 43h56v14h-56z"/><path d="m77 47h6v6h-6z" fill="#fff"/><circle cx="58" cy="30" r="3"/><circle cx="102" cy="30" r="3"/><circle cx="58" cy="70" r="3"/><circle cx="102" cy="70" r="3"/><circle cx="22" cy="20" r="2.5"/><circle cx="22" cy="50" r="2.5"/><circle cx="22" cy="80" r="2.5"/><circle cx="138" cy="20" r="2.5"/><circle cx="138" cy="50" r="2.5"/><circle cx="138" cy="80" r="2.5"/><circle cx="40" cy="14" r="2"/><circle cx="120" cy="14" r="2"/></mask><path d="m0 20q200 160 400 0 200 160 400 0 200 160 400 0" fill="none" stroke="#3d2817" stroke-width="1.5"/><path d="m0 0h160v115h-160z" fill="#e91e63" mask="url(#a)" transform="matrix(.45091626 .21604287 -.21604287 .45091626 43.926699 53.91657)"/><path d="m0 0h160v115h-160z" fill="#00bcd4" mask="url(#b)" transform="matrix(.4937069 .07907903 -.07907903 .4937069 120.503448 90.473677)"/><path d="m0 0h160v115h-160z" fill="#ffc107" mask="url(#c)" transform="matrix(.4937069 -.07907903 .07907903 .4937069 200.503448 103.126323)"/><path d="m0 0h160v115h-160z" fill="#8bc34a" mask="url(#d)" transform="matrix(.45091626 -.21604287 .21604287 .45091626 283.926699 88.48343)"/><path d="m0 0h160v115h-160z" fill="#ff6f00" mask="url(#e)" transform="matrix(.45091626 .21604287 -.21604287 .45091626 443.926699 53.91657)"/><path d="m0 0h160v115h-160z" fill="#9c27b0" mask="url(#f)" transform="matrix(.4937069 .07907903 -.07907903 .4937069 520.503448 90.473677)"/><path d="m0 0h160v115h-160z" fill="#e91e63" mask="url(#a)" transform="matrix(.4937069 -.07907903 .07907903 .4937069 600.503448 103.126323)"/><path d="m0 0h160v115h-160z" fill="#00bcd4" mask="url(#b)" transform="matrix(.45091626 -.21604287 .21604287 .45091626 683.926699 88.48343)"/><path d="m0 0h160v115h-160z" fill="#ffc107" mask="url(#c)" transform="matrix(.45091626 .21604287 -.21604287 .45091626 843.926699 53.91657)"/><path d="m0 0h160v115h-160z" fill="#8bc34a" mask="url(#d)" transform="matrix(.4937069 .07907903 -.07907903 .4937069 920.503448 90.473677)"/><path d="m0 0h160v115h-160z" fill="#ff6f00" mask="url(#e)" transform="matrix(.4937069 -.07907903 .07907903 .4937069 1000.503448 103.126323)"/><path d="m0 0h160v115h-160z" fill="#9c27b0" mask="url(#f)" transform="matrix(.45091626 -.21604287 .21604287 .45091626 1083.926699 88.48343)"/><g fill="#2a1810"><circle cy="20" r="4"/><circle cx="400" cy="20" r="4"/><circle cx="800" cy="20" r="4"/><circle cx="1200" cy="20" r="4"/></g></svg>